<mxfile host="app.diagrams.net" agent="Mozilla/5.0 (Macintosh; Intel Mac OS X 10_15_7) AppleWebKit/605.1.15 (KHTML, like Gecko) Version/17.4 Safari/605.1.15" version="28.2.5">
  <diagram name="Page-1" id="UqevvSb5c4swtOucUGJ2">
    <mxGraphModel dx="946" dy="582" grid="1" gridSize="10" guides="1" tooltips="1" connect="1" arrows="1" fold="1" page="1" pageScale="1" pageWidth="827" pageHeight="1169" math="0" shadow="0">
      <root>
        <mxCell id="0" />
        <mxCell id="1" parent="0" />
        <mxCell id="1pcOP2y0WARQrkwwdJ42-1" value="" style="shape=flexArrow;endArrow=classic;html=1;rounded=0;" edge="1" parent="1" target="1pcOP2y0WARQrkwwdJ42-4">
          <mxGeometry width="50" height="50" relative="1" as="geometry">
            <mxPoint x="400" y="90" as="sourcePoint" />
            <mxPoint x="400" y="170" as="targetPoint" />
          </mxGeometry>
        </mxCell>
        <mxCell id="1pcOP2y0WARQrkwwdJ42-3" value="&lt;a href=&quot;https://app.seniormarketcrm.com/location/w8PE2gQV1HORrTCGFnG5/workflow/b26f9c49-9c52-467f-a36d-7ee9170d0d22&quot;&gt;GHL A Form&lt;/a&gt;" style="rounded=0;whiteSpace=wrap;html=1;" vertex="1" parent="1">
          <mxGeometry x="340" y="30" width="120" height="60" as="geometry" />
        </mxCell>
        <mxCell id="1pcOP2y0WARQrkwwdJ42-9" value="" style="edgeStyle=orthogonalEdgeStyle;rounded=0;orthogonalLoop=1;jettySize=auto;html=1;" edge="1" parent="1" source="1pcOP2y0WARQrkwwdJ42-4" target="1pcOP2y0WARQrkwwdJ42-8">
          <mxGeometry relative="1" as="geometry" />
        </mxCell>
        <UserObject label="&lt;a href=&quot;https://n8n-n8n.sl82pt.easypanel.host/workflow/pdSehgQdcL1LFsCj&quot;&gt;n8n&amp;nbsp;RMBA Outbound AI Agent Call Flow&lt;/a&gt;&amp;nbsp;" id="1pcOP2y0WARQrkwwdJ42-4">
          <mxCell style="rounded=0;whiteSpace=wrap;html=1;" vertex="1" parent="1">
            <mxGeometry x="290" y="140" width="220" height="60" as="geometry" />
          </mxCell>
        </UserObject>
        <mxCell id="1pcOP2y0WARQrkwwdJ42-11" value="" style="edgeStyle=orthogonalEdgeStyle;rounded=0;orthogonalLoop=1;jettySize=auto;html=1;" edge="1" parent="1" source="1pcOP2y0WARQrkwwdJ42-8" target="1pcOP2y0WARQrkwwdJ42-10">
          <mxGeometry relative="1" as="geometry" />
        </mxCell>
        <mxCell id="1pcOP2y0WARQrkwwdJ42-13" value="" style="edgeStyle=orthogonalEdgeStyle;rounded=0;orthogonalLoop=1;jettySize=auto;html=1;" edge="1" parent="1" source="1pcOP2y0WARQrkwwdJ42-8" target="1pcOP2y0WARQrkwwdJ42-12">
          <mxGeometry relative="1" as="geometry" />
        </mxCell>
        <mxCell id="1pcOP2y0WARQrkwwdJ42-15" value="" style="edgeStyle=orthogonalEdgeStyle;rounded=0;orthogonalLoop=1;jettySize=auto;html=1;" edge="1" parent="1" source="1pcOP2y0WARQrkwwdJ42-8" target="1pcOP2y0WARQrkwwdJ42-14">
          <mxGeometry relative="1" as="geometry" />
        </mxCell>
        <mxCell id="1pcOP2y0WARQrkwwdJ42-8" value="&lt;a href=&quot;https://dashboard.retellai.com/agents/agent_86a10bd9cdfba587aa79caeeb0&quot;&gt;Retell GHL A&lt;/a&gt;" style="whiteSpace=wrap;html=1;rounded=0;" vertex="1" parent="1">
          <mxGeometry x="340" y="240" width="120" height="60" as="geometry" />
        </mxCell>
        <mxCell id="1pcOP2y0WARQrkwwdJ42-10" value="Book appointment&lt;div&gt;1. fetch calendar availability&lt;/div&gt;&lt;div&gt;2. register contact in GHL B&lt;/div&gt;&lt;div&gt;3. book appointment&lt;/div&gt;&lt;div&gt;&lt;br&gt;&lt;/div&gt;" style="whiteSpace=wrap;html=1;rounded=0;" vertex="1" parent="1">
          <mxGeometry x="140" y="240" width="120" height="110" as="geometry" />
        </mxCell>
        <mxCell id="1pcOP2y0WARQrkwwdJ42-12" value="&lt;a href=&quot;https://dashboard.retellai.com/agents/agent_53b2d59dc45f773ca989f8e204&quot;&gt;Transfer call to Retell GHL B&lt;/a&gt;" style="whiteSpace=wrap;html=1;rounded=0;" vertex="1" parent="1">
          <mxGeometry x="540" y="240" width="120" height="60" as="geometry" />
        </mxCell>
        <mxCell id="1pcOP2y0WARQrkwwdJ42-14" value="&lt;a href=&quot;https://docs.google.com/spreadsheets/d/1GBB0Q5VqcSsYE3d6ShwtLItmzHfdg2XPHfE0tK8h50c/edit?gid=0#gid=0&quot;&gt;Log info to excel for GHL A&lt;/a&gt;&lt;div&gt;&lt;br&gt;&lt;/div&gt;" style="whiteSpace=wrap;html=1;rounded=0;" vertex="1" parent="1">
          <mxGeometry x="340" y="380" width="120" height="60" as="geometry" />
        </mxCell>
        <mxCell id="1pcOP2y0WARQrkwwdJ42-17" value="âœ… DST rule applied&lt;div&gt;âœ… GHL A Retell logging&lt;/div&gt;" style="rounded=1;whiteSpace=wrap;html=1;" vertex="1" parent="1">
          <mxGeometry x="130" y="140" width="140" height="60" as="geometry" />
        </mxCell>
        <mxCell id="1pcOP2y0WARQrkwwdJ42-18" value="í ½í±‰ 3 times dial rule&lt;div&gt;í ½í±‰ GHL B Retell logging&lt;/div&gt;" style="rounded=1;whiteSpace=wrap;html=1;" vertex="1" parent="1">
          <mxGeometry x="550" y="140" width="160" height="60" as="geometry" />
        </mxCell>
      </root>
    </mxGraphModel>
  </diagram>
</mxfile>
